<svg xmlns="http://www.w3.org/2000/svg" width="24" height="24" viewBox="0 0 24 24">
  <g id="Lock-bold-icon" transform="translate(-1181.044 -367.044)">
    <rect id="Rectangle_5" data-name="Rectangle 5" width="24" height="24" transform="translate(1181.044 367.044)" fill="none"/>
    <g id="Group_1" data-name="Group 1" transform="translate(1181.044 367.044)">
      <path id="Path_2" data-name="Path 2" d="M12,17.35a1.63,1.63,0,1,0-1.153-.477A1.63,1.63,0,0,0,12,17.35Z" fill="#a5a5a5"/>
      <path id="Path_3" data-name="Path 3" d="M18.28,9.53V8.28C18.28,5.58,17.63,2,12,2S5.72,5.58,5.72,8.28V9.53C2.92,9.88,2,11.3,2,14.79v1.86C2,20.75,3.25,22,7.35,22h9.3c4.1,0,5.35-1.25,5.35-5.35V14.79C22,11.3,21.08,9.88,18.28,9.53ZM12,18.74a3.016,3.016,0,1,1,3.02-3.02A3.024,3.024,0,0,1,12,18.74ZM7.35,9.44H7.12V8.28c0-2.93.83-4.88,4.88-4.88s4.88,1.95,4.88,4.88V9.45H7.35Z" fill="#a5a5a5"/>
    </g>
  </g>
</svg>
