<svg id="Attach-icon" xmlns="http://www.w3.org/2000/svg" width="28" height="28" viewBox="0 0 28 28">
  <rect id="Rectangle_3999" data-name="Rectangle 3999" width="28" height="28" fill="none"/>
  <g id="XMLID_221_" transform="translate(2.333 2.956)">
    <path id="XMLID_222_" d="M2.175,28.713a7.433,7.433,0,0,0,10.5,0L21.783,19.6a5.3,5.3,0,0,0-7.5-7.5L5.924,20.463a3.182,3.182,0,1,0,4.5,4.5l5.5-5.5a1.061,1.061,0,1,0-1.5-1.5l-5.5,5.5a1.061,1.061,0,1,1-1.5-1.5L15.783,13.6a3.182,3.182,0,0,1,4.5,4.5l-9.109,9.109a5.3,5.3,0,1,1-7.5-7.5L12.783,10.6a1.061,1.061,0,0,0-1.5-1.5L2.175,18.214a7.424,7.424,0,0,0,0,10.5Z" transform="translate(0 -8.794)" fill="#7b7b7b"/>
  </g>
</svg>
