<svg id="Send-B-icon" xmlns="http://www.w3.org/2000/svg" width="28" height="28" viewBox="0 0 28 28">
  <g id="paperplane" transform="translate(2.335 2.333)">
    <path id="Path_2957" data-name="Path 2957" d="M25.64,13.716A2.4,2.4,0,0,1,24.135,15.8L4.979,25.383a3.026,3.026,0,0,1-1.342.35,1.814,1.814,0,0,1-1.483-.71,2.37,2.37,0,0,1-.232-2.206l2.158-7.2a3.278,3.278,0,0,0,.14-.735c.022.066,12.972-1.171,12.985-1.167S4.2,12.6,4.22,12.549a3.428,3.428,0,0,0-.14-.735l-2.158-7.2a2.363,2.363,0,0,1,.233-2.2,2.153,2.153,0,0,1,2.823-.362l19.158,9.578a2.4,2.4,0,0,1,1.5,2.088Z" transform="translate(-1.767 -1.703)" fill="#2b76ff"/>
  </g>
  <rect id="Rectangle_4067" data-name="Rectangle 4067" width="28" height="28" fill="none"/>
</svg>
