<svg id="Channel_talk-icon" data-name="Channel talk-icon" xmlns="http://www.w3.org/2000/svg" width="28" height="28" viewBox="0 0 28 28">
  <rect id="Rectangle_4000" data-name="Rectangle 4000" width="28" height="28" fill="none"/>
  <g id="Group_2068" data-name="Group 2068" transform="translate(1.167 0.822)">
    <path id="Path_2506" data-name="Path 2506" d="M7.767,11.23a2.4,2.4,0,0,1,.494-.172,2.364,2.364,0,0,1,.313-.049C8.645,11,8.717,11,8.789,11a2.32,2.32,0,0,1,.6.076,2.4,2.4,0,0,1,.421.153q.1.046.192.1c.075.044.15.093.221.145a2.783,2.783,0,0,1,.453.417l1.258,1.446a.884.884,0,0,0,.288.226.787.787,0,0,0,.218.069.755.755,0,0,0,.123.01.775.775,0,0,0,.341-.079.872.872,0,0,0,.288-.226l.629-.723a.939.939,0,0,1,.085-.088.849.849,0,0,1,.2-.142.839.839,0,0,1,.182-.064.766.766,0,0,1,.162-.019.793.793,0,0,1,.346.076.91.91,0,0,1,.292.224,1.045,1.045,0,0,1,.194.336,1.163,1.163,0,0,1,.066.4,1.184,1.184,0,0,1-.072.395,1.076,1.076,0,0,1-.1.205,1.058,1.058,0,0,1-.1.127l-.629.723a2.444,2.444,0,0,1-3.775,0L9.418,13.338a.883.883,0,0,0-.288-.226.772.772,0,0,0-.683,0,.934.934,0,0,0-.095.053.9.9,0,0,0-.193.173l-.629.723a.962.962,0,0,1-.119.118.847.847,0,0,1-.17.111.786.786,0,0,1-.689.007.893.893,0,0,1-.17-.106.942.942,0,0,1-.122-.118,1.044,1.044,0,0,1-.194-.336,1.174,1.174,0,0,1-.058-.252A1.22,1.22,0,0,1,6,13.342a1.078,1.078,0,0,1,.014-.172,1.423,1.423,0,0,1,.031-.14l.027-.083a1.053,1.053,0,0,1,.2-.332l.629-.723A2.686,2.686,0,0,1,7.767,11.23Z" transform="translate(2.158 2.853)" fill="#fff"/>
    <path id="Path_2507" data-name="Path 2507" d="M5.905.662a.956.956,0,0,0,0,1.356l4.284,4.267H6.417A6.226,6.226,0,0,0,0,12.3v8.422a6.226,6.226,0,0,0,6.417,6.015H19.25a6.226,6.226,0,0,0,6.417-6.015V12.3A6.226,6.226,0,0,0,19.25,6.285H16.1l4.274-4.256A.961.961,0,1,0,19.008.674L13.375,6.285h-.464L7.266.662A.965.965,0,0,0,5.905.662ZM19.25,8.2H6.417a4.308,4.308,0,0,0-4.492,4.1v8.422a4.308,4.308,0,0,0,4.492,4.1H19.25a4.308,4.308,0,0,0,4.492-4.1V12.3A4.308,4.308,0,0,0,19.25,8.2Z" transform="translate(0 -0.382)" fill="#fff" fill-rule="evenodd"/>
  </g>
</svg>
