<svg xmlns="http://www.w3.org/2000/svg" width="28" height="28" viewBox="0 0 28 28">
  <g id="Discover_L-icon" data-name="Discover L-icon" transform="translate(-969.752 -190.324)">
    <rect id="Rectangle_3846" data-name="Rectangle 3846" width="28" height="28" transform="translate(969.752 190.324)" fill="none"/>
    <g id="Discover_L-icon-2" data-name="Discover L-icon" transform="translate(972.3 193.228)">
      <path id="Path_2445" data-name="Path 2445" d="M19.824,2.121,8.628,4.929a5.572,5.572,0,0,0-3.7,3.7l-2.808,11.2c-.846,3.383,1.229,5.469,4.623,4.623l11.2-2.8a5.618,5.618,0,0,0,3.7-3.7L24.447,6.744C25.293,3.362,23.207,1.276,19.824,2.121Z" transform="translate(-1.933 -1.933)" fill="none" stroke="#000" stroke-linecap="round" stroke-linejoin="round" stroke-width="2"/>
      <path id="Path_2446" data-name="Path 2446" d="M12.446,16.393a3.946,3.946,0,1,0-2.791-1.156A3.946,3.946,0,0,0,12.446,16.393Z" transform="translate(-1.095 -1.095)" fill="none" stroke="#000" stroke-linecap="round" stroke-linejoin="round" stroke-width="2"/>
    </g>
  </g>
</svg>
