<svg xmlns="http://www.w3.org/2000/svg" width="28" height="28" viewBox="0 0 28 28">
  <g id="Message_B-icon" data-name="Message B-icon" transform="translate(-1096.063 -191.063)">
    <rect id="Rectangle_3848" data-name="Rectangle 3848" width="28" height="28" transform="translate(1096.063 191.063)" fill="none"/>
    <g id="Message_B-icon-2" data-name="Message B-icon" transform="translate(1098.35 193.859)">
      <path id="Path_2447" data-name="Path 2447" d="M19.568,2.43H7.856A5.533,5.533,0,0,0,2,8.286v7.027A5.533,5.533,0,0,0,7.856,21.17v2.495a1.164,1.164,0,0,0,1.815.972l5.212-3.467h4.685a5.533,5.533,0,0,0,5.856-5.856V8.286A5.533,5.533,0,0,0,19.568,2.43Z" transform="translate(-2 -2.43)" fill="none" stroke="#fff" stroke-width="2"/>
      <path id="Path_2448" data-name="Path 2448" d="M6,8.171A1.171,1.171,0,0,1,7.171,7H14.2a1.171,1.171,0,0,1,0,2.342H7.171A1.171,1.171,0,0,1,6,8.171Z" transform="translate(-1.315 -1.648)" fill="#fff"/>
      <path id="Path_2449" data-name="Path 2449" d="M6,12.171A1.171,1.171,0,0,1,7.171,11H18.883a1.171,1.171,0,1,1,0,2.342H7.171A1.171,1.171,0,0,1,6,12.171Z" transform="translate(-1.315 -0.963)" fill="#fff"/>
    </g>
  </g>
</svg>
