<svg xmlns="http://www.w3.org/2000/svg" width="28" height="28" viewBox="0 0 28 28">
  <g id="Profile_L-icon" data-name="Profile L-icon" transform="translate(-1206.24 -190.24)">
    <rect id="Rectangle_3850" data-name="Rectangle 3850" width="28" height="28" transform="translate(1206.24 190.24)" fill="none"/>
    <g id="Profile_L-icon-2" data-name="Profile L-icon" transform="translate(1207.483 191.484)">
      <path id="Path_2453" data-name="Path 2453" d="M13.541,15.033h-.2a4.7,4.7,0,1,1,.237,0ZM13.4,7.248a3,3,0,0,0-.119,6,.992.992,0,0,1,.273,0,3,3,0,0,0-.154-6Zm0,18.726a12.71,12.71,0,0,1-8.6-3.346.9.9,0,0,1-.285-.748A5.231,5.231,0,0,1,7,18.178a12.489,12.489,0,0,1,12.792,0,5.254,5.254,0,0,1,2.492,3.7.85.85,0,0,1-.285.748A12.71,12.71,0,0,1,13.4,25.974ZM6.374,21.643a10.948,10.948,0,0,0,14.05,0A3.858,3.858,0,0,0,18.8,19.649a10.738,10.738,0,0,0-10.811,0A3.83,3.83,0,0,0,6.374,21.643Z" transform="translate(-0.642 -0.46)" fill="#fff"/>
      <path id="Path_2454" data-name="Path 2454" d="M14.007,26.764A12.757,12.757,0,1,1,26.764,14.007,12.768,12.768,0,0,1,14.007,26.764Zm0-23.734A10.977,10.977,0,1,0,24.984,14.007,10.99,10.99,0,0,0,14.007,3.03Z" transform="translate(-1.25 -1.25)" fill="#fff"/>
    </g>
  </g>
</svg>
