<svg id="Excel-52-icon" xmlns="http://www.w3.org/2000/svg" width="52" height="52" viewBox="0 0 52 52">
  <rect id="Rectangle_3997" data-name="Rectangle 3997" width="52" height="52" fill="none"/>
  <g id="Group_2067" data-name="Group 2067" transform="translate(6.5 2.167)">
    <path id="Path_2499" data-name="Path 2499" d="M26.635.635A2.167,2.167,0,0,0,25.1,0H2.167A2.167,2.167,0,0,0,0,2.167V45.5a2.167,2.167,0,0,0,2.167,2.167H36.833A2.167,2.167,0,0,0,39,45.5V13.9a2.167,2.167,0,0,0-.635-1.532Z" transform="translate(0 0)" fill="#0f783f" fill-rule="evenodd"/>
    <path id="Path_2500" data-name="Path 2500" d="M13.11,1.615a.65.65,0,0,0-1.11.46v8.612a.65.65,0,0,0,.65.65l8.614,0a.65.65,0,0,0,.46-1.11Z" transform="translate(14 1.661)" fill="#fff"/>
    <path id="Path_2501" data-name="Path 2501" d="M14.3,22.552l-2.479-3.727L9.641,22.552H6.279l3.9-6.188-3.987-5.98H9.641l2.444,3.675,2.149-3.675H17.6L13.732,16.52l4.021,6.032Z" transform="translate(7.224 12.115)" fill="#fff"/>
  </g>
</svg>
