<svg id="PDF-52-icon" xmlns="http://www.w3.org/2000/svg" width="52" height="52" viewBox="0 0 52 52">
  <rect id="Rectangle_3997" data-name="Rectangle 3997" width="52" height="52" fill="none"/>
  <g id="Group_2067" data-name="Group 2067" transform="translate(6.5 2.167)">
    <path id="Path_2499" data-name="Path 2499" d="M26.635.635A2.167,2.167,0,0,0,25.1,0H2.167A2.167,2.167,0,0,0,0,2.167V45.5a2.167,2.167,0,0,0,2.167,2.167H36.833A2.167,2.167,0,0,0,39,45.5V13.9a2.167,2.167,0,0,0-.635-1.532Z" transform="translate(0 0)" fill="#f68a1e" fill-rule="evenodd"/>
    <path id="Path_2500" data-name="Path 2500" d="M13.11,1.615a.65.65,0,0,0-1.11.46v8.612a.65.65,0,0,0,.65.65l8.614,0a.65.65,0,0,0,.46-1.11Z" transform="translate(14 1.661)" fill="#fff"/>
    <g id="Group_2317" data-name="Group 2317" transform="translate(5.421 23.835)">
      <path id="Path_2936" data-name="Path 2936" d="M.442,11.939V.909H4.794a4.427,4.427,0,0,1,2.138.479,3.246,3.246,0,0,1,1.346,1.32,3.914,3.914,0,0,1,.469,1.939,3.879,3.879,0,0,1-.474,1.939A3.269,3.269,0,0,1,6.9,7.895a4.614,4.614,0,0,1-2.165.469H1.961V6.494h2.4a2.354,2.354,0,0,0,1.109-.232,1.535,1.535,0,0,0,.657-.652,2.041,2.041,0,0,0,.221-.964,1.989,1.989,0,0,0-.221-.959,1.474,1.474,0,0,0-.657-.641,2.4,2.4,0,0,0-1.12-.232H2.774v9.124Z" transform="translate(-0.442 -0.909)" fill="#fff"/>
      <path id="Path_2937" data-name="Path 2937" d="M8.885,11.939H4.975V.909H8.917a5.847,5.847,0,0,1,2.865.662,4.469,4.469,0,0,1,1.847,1.89,6.24,6.24,0,0,1,.652,2.951,6.285,6.285,0,0,1-.652,2.962,4.478,4.478,0,0,1-1.858,1.9A5.913,5.913,0,0,1,8.885,11.939Zm-1.578-2H8.788a3.745,3.745,0,0,0,1.74-.366,2.357,2.357,0,0,0,1.066-1.147,4.827,4.827,0,0,0,.361-2.014,4.759,4.759,0,0,0-.361-2,2.336,2.336,0,0,0-1.061-1.142,3.745,3.745,0,0,0-1.74-.366H7.307Z" transform="translate(4.845 -0.909)" fill="#fff"/>
      <path id="Path_2938" data-name="Path 2938" d="M10.067,11.939V.909h7.3V2.832H12.4V5.46h4.487V7.383H12.4v4.556Z" transform="translate(10.787 -0.909)" fill="#fff"/>
    </g>
  </g>
</svg>
