<svg id="Poweroint-52-icon" xmlns="http://www.w3.org/2000/svg" width="52" height="52" viewBox="0 0 52 52">
  <rect id="Rectangle_3997" data-name="Rectangle 3997" width="52" height="52" fill="none"/>
  <g id="Group_2067" data-name="Group 2067" transform="translate(6.5 2.167)">
    <path id="Path_2499" data-name="Path 2499" d="M26.635.635A2.167,2.167,0,0,0,25.1,0H2.167A2.167,2.167,0,0,0,0,2.167V45.5a2.167,2.167,0,0,0,2.167,2.167H36.833A2.167,2.167,0,0,0,39,45.5V13.9a2.167,2.167,0,0,0-.635-1.532Z" transform="translate(0 0)" fill="#d35230" fill-rule="evenodd"/>
    <path id="Path_2500" data-name="Path 2500" d="M13.11,1.615a.65.65,0,0,0-1.11.46v8.612a.65.65,0,0,0,.65.65l8.614,0a.65.65,0,0,0,.46-1.11Z" transform="translate(14 1.661)" fill="#fff"/>
    <path id="Path_2935" data-name="Path 2935" d="M.506,12.788V.182H5.479A5.059,5.059,0,0,1,7.923.73,3.71,3.71,0,0,1,9.462,2.238,4.473,4.473,0,0,1,10,4.454a4.432,4.432,0,0,1-.542,2.216,3.735,3.735,0,0,1-1.57,1.5A5.273,5.273,0,0,1,5.412,8.7H3.147V6.565H4.981A2.69,2.69,0,0,0,6.249,6.3,1.755,1.755,0,0,0,7,5.555a2.333,2.333,0,0,0,.252-1.1A2.274,2.274,0,0,0,7,3.358a1.685,1.685,0,0,0-.751-.732,2.743,2.743,0,0,0-1.28-.265h-1.8V12.788Z" transform="translate(14.248 21.879)" fill="#fff"/>
  </g>
</svg>
