<svg id="Word-52-icon" xmlns="http://www.w3.org/2000/svg" width="52" height="52" viewBox="0 0 52 52">
  <rect id="Rectangle_3895" data-name="Rectangle 3895" width="52" height="52" fill="none"/>
  <g id="Group_46" data-name="Group 46" transform="translate(6.5 2.167)">
    <path id="Path_2484" data-name="Path 2484" d="M26.635.635A2.167,2.167,0,0,0,25.1,0H2.167A2.167,2.167,0,0,0,0,2.167V45.5a2.167,2.167,0,0,0,2.167,2.167H36.833A2.167,2.167,0,0,0,39,45.5V13.9a2.167,2.167,0,0,0-.635-1.532Z" transform="translate(0 0)" fill="#2b76ff" fill-rule="evenodd"/>
    <path id="Path_2485" data-name="Path 2485" d="M13.11,1.615a.65.65,0,0,0-1.11.46v8.612a.65.65,0,0,0,.65.65l8.614,0a.65.65,0,0,0,.46-1.11Z" transform="translate(14 1.661)" fill="#fff"/>
    <path id="Path_2486" data-name="Path 2486" d="M22.586,10.384,19.414,22.552H15.826l-1.941-8.008-2.011,8.008H8.286L5.2,10.384H8.372l1.751,8.857,2.167-8.857h3.259l2.08,8.857L19.4,10.384Z" transform="translate(6.067 12.115)" fill="#fff"/>
  </g>
</svg>
